<?xml version="1.0" encoding="utf-8" standalone="no"?>
<!DOCTYPE svg PUBLIC "-//W3C//DTD SVG 1.1//EN"
  "http://www.w3.org/Graphics/SVG/1.1/DTD/svg11.dtd">
<svg xmlns:xlink="http://www.w3.org/1999/xlink" width="460.8pt" height="345.6pt" viewBox="0 0 460.8 345.6" xmlns="http://www.w3.org/2000/svg" version="1.1">
 <metadata>
  <rdf:RDF xmlns:dc="http://purl.org/dc/elements/1.1/" xmlns:cc="http://creativecommons.org/ns#" xmlns:rdf="http://www.w3.org/1999/02/22-rdf-syntax-ns#">
   <cc:Work>
    <dc:type rdf:resource="http://purl.org/dc/dcmitype/StillImage"/>
    <dc:date>2025-02-08T20:08:57.530862</dc:date>
    <dc:format>image/svg+xml</dc:format>
    <dc:creator>
     <cc:Agent>
      <dc:title>Matplotlib v3.8.4, https://matplotlib.org/</dc:title>
     </cc:Agent>
    </dc:creator>
   </cc:Work>
  </rdf:RDF>
 </metadata>
 <defs>
  <style type="text/css">*{stroke-linejoin: round; stroke-linecap: butt}</style>
 </defs>
 <g id="figure_1">
  <g id="patch_1">
   <path d="M 0 345.6 
L 460.8 345.6 
L 460.8 0 
L 0 0 
z
" style="fill: #ffffff"/>
  </g>
  <g id="axes_1">
   <g id="patch_2">
    <path d="M 57.6 307.584 
L 414.72 307.584 
L 414.72 41.472 
L 57.6 41.472 
z
" style="fill: #ffffff"/>
   </g>
   <g id="matplotlib.axis_1">
    <g id="xtick_1">
     <g id="line2d_1">
      <defs>
       <path id="m95e3d54106" d="M 0 0 
L 0 3.5 
" style="stroke: #000000; stroke-width: 0.8"/>
      </defs>
      <g>
       <use xlink:href="#m95e3d54106" x="73.832727" y="307.584" style="stroke: #000000; stroke-width: 0.8"/>
      </g>
     </g>
     <g id="text_1">
      <!-- 0 -->
      <g transform="translate(70.651477 322.182437) scale(0.1 -0.1)">
       <defs>
        <path id="DejaVuSans-30" d="M 2034 4250 
Q 1547 4250 1301 3770 
Q 1056 3291 1056 2328 
Q 1056 1369 1301 889 
Q 1547 409 2034 409 
Q 2525 409 2770 889 
Q 3016 1369 3016 2328 
Q 3016 3291 2770 3770 
Q 2525 4250 2034 4250 
z
M 2034 4750 
Q 2819 4750 3233 4129 
Q 3647 3509 3647 2328 
Q 3647 1150 3233 529 
Q 2819 -91 2034 -91 
Q 1250 -91 836 529 
Q 422 1150 422 2328 
Q 422 3509 836 4129 
Q 1250 4750 2034 4750 
z
" transform="scale(0.015625)"/>
       </defs>
       <use xlink:href="#DejaVuSans-30"/>
      </g>
     </g>
    </g>
    <g id="xtick_2">
     <g id="line2d_2">
      <g>
       <use xlink:href="#m95e3d54106" x="135.802001" y="307.584" style="stroke: #000000; stroke-width: 0.8"/>
      </g>
     </g>
     <g id="text_2">
      <!-- 50000 -->
      <g transform="translate(119.895751 322.182437) scale(0.1 -0.1)">
       <defs>
        <path id="DejaVuSans-35" d="M 691 4666 
L 3169 4666 
L 3169 4134 
L 1269 4134 
L 1269 2991 
Q 1406 3038 1543 3061 
Q 1681 3084 1819 3084 
Q 2600 3084 3056 2656 
Q 3513 2228 3513 1497 
Q 3513 744 3044 326 
Q 2575 -91 1722 -91 
Q 1428 -91 1123 -41 
Q 819 9 494 109 
L 494 744 
Q 775 591 1075 516 
Q 1375 441 1709 441 
Q 2250 441 2565 725 
Q 2881 1009 2881 1497 
Q 2881 1984 2565 2268 
Q 2250 2553 1709 2553 
Q 1456 2553 1204 2497 
Q 953 2441 691 2322 
L 691 4666 
z
" transform="scale(0.015625)"/>
       </defs>
       <use xlink:href="#DejaVuSans-35"/>
       <use xlink:href="#DejaVuSans-30" x="63.623047"/>
       <use xlink:href="#DejaVuSans-30" x="127.246094"/>
       <use xlink:href="#DejaVuSans-30" x="190.869141"/>
       <use xlink:href="#DejaVuSans-30" x="254.492188"/>
      </g>
     </g>
    </g>
    <g id="xtick_3">
     <g id="line2d_3">
      <g>
       <use xlink:href="#m95e3d54106" x="197.771274" y="307.584" style="stroke: #000000; stroke-width: 0.8"/>
      </g>
     </g>
     <g id="text_3">
      <!-- 100000 -->
      <g transform="translate(178.683774 322.182437) scale(0.1 -0.1)">
       <defs>
        <path id="DejaVuSans-31" d="M 794 531 
L 1825 531 
L 1825 4091 
L 703 3866 
L 703 4441 
L 1819 4666 
L 2450 4666 
L 2450 531 
L 3481 531 
L 3481 0 
L 794 0 
L 794 531 
z
" transform="scale(0.015625)"/>
       </defs>
       <use xlink:href="#DejaVuSans-31"/>
       <use xlink:href="#DejaVuSans-30" x="63.623047"/>
       <use xlink:href="#DejaVuSans-30" x="127.246094"/>
       <use xlink:href="#DejaVuSans-30" x="190.869141"/>
       <use xlink:href="#DejaVuSans-30" x="254.492188"/>
       <use xlink:href="#DejaVuSans-30" x="318.115234"/>
      </g>
     </g>
    </g>
    <g id="xtick_4">
     <g id="line2d_4">
      <g>
       <use xlink:href="#m95e3d54106" x="259.740548" y="307.584" style="stroke: #000000; stroke-width: 0.8"/>
      </g>
     </g>
     <g id="text_4">
      <!-- 150000 -->
      <g transform="translate(240.653048 322.182437) scale(0.1 -0.1)">
       <use xlink:href="#DejaVuSans-31"/>
       <use xlink:href="#DejaVuSans-35" x="63.623047"/>
       <use xlink:href="#DejaVuSans-30" x="127.246094"/>
       <use xlink:href="#DejaVuSans-30" x="190.869141"/>
       <use xlink:href="#DejaVuSans-30" x="254.492188"/>
       <use xlink:href="#DejaVuSans-30" x="318.115234"/>
      </g>
     </g>
    </g>
    <g id="xtick_5">
     <g id="line2d_5">
      <g>
       <use xlink:href="#m95e3d54106" x="321.709822" y="307.584" style="stroke: #000000; stroke-width: 0.8"/>
      </g>
     </g>
     <g id="text_5">
      <!-- 200000 -->
      <g transform="translate(302.622322 322.182437) scale(0.1 -0.1)">
       <defs>
        <path id="DejaVuSans-32" d="M 1228 531 
L 3431 531 
L 3431 0 
L 469 0 
L 469 531 
Q 828 903 1448 1529 
Q 2069 2156 2228 2338 
Q 2531 2678 2651 2914 
Q 2772 3150 2772 3378 
Q 2772 3750 2511 3984 
Q 2250 4219 1831 4219 
Q 1534 4219 1204 4116 
Q 875 4013 500 3803 
L 500 4441 
Q 881 4594 1212 4672 
Q 1544 4750 1819 4750 
Q 2544 4750 2975 4387 
Q 3406 4025 3406 3419 
Q 3406 3131 3298 2873 
Q 3191 2616 2906 2266 
Q 2828 2175 2409 1742 
Q 1991 1309 1228 531 
z
" transform="scale(0.015625)"/>
       </defs>
       <use xlink:href="#DejaVuSans-32"/>
       <use xlink:href="#DejaVuSans-30" x="63.623047"/>
       <use xlink:href="#DejaVuSans-30" x="127.246094"/>
       <use xlink:href="#DejaVuSans-30" x="190.869141"/>
       <use xlink:href="#DejaVuSans-30" x="254.492188"/>
       <use xlink:href="#DejaVuSans-30" x="318.115234"/>
      </g>
     </g>
    </g>
    <g id="xtick_6">
     <g id="line2d_6">
      <g>
       <use xlink:href="#m95e3d54106" x="383.679095" y="307.584" style="stroke: #000000; stroke-width: 0.8"/>
      </g>
     </g>
     <g id="text_6">
      <!-- 250000 -->
      <g transform="translate(364.591595 322.182437) scale(0.1 -0.1)">
       <use xlink:href="#DejaVuSans-32"/>
       <use xlink:href="#DejaVuSans-35" x="63.623047"/>
       <use xlink:href="#DejaVuSans-30" x="127.246094"/>
       <use xlink:href="#DejaVuSans-30" x="190.869141"/>
       <use xlink:href="#DejaVuSans-30" x="254.492188"/>
       <use xlink:href="#DejaVuSans-30" x="318.115234"/>
      </g>
     </g>
    </g>
    <g id="text_7">
     <!-- n -->
     <g transform="translate(232.99125 335.860562) scale(0.1 -0.1)">
      <defs>
       <path id="DejaVuSans-6e" d="M 3513 2113 
L 3513 0 
L 2938 0 
L 2938 2094 
Q 2938 2591 2744 2837 
Q 2550 3084 2163 3084 
Q 1697 3084 1428 2787 
Q 1159 2491 1159 1978 
L 1159 0 
L 581 0 
L 581 3500 
L 1159 3500 
L 1159 2956 
Q 1366 3272 1645 3428 
Q 1925 3584 2291 3584 
Q 2894 3584 3203 3211 
Q 3513 2838 3513 2113 
z
" transform="scale(0.015625)"/>
      </defs>
      <use xlink:href="#DejaVuSans-6e"/>
     </g>
    </g>
   </g>
   <g id="matplotlib.axis_2">
    <g id="ytick_1">
     <g id="line2d_7">
      <defs>
       <path id="m4dc366f9ca" d="M 0 0 
L -3.5 0 
" style="stroke: #000000; stroke-width: 0.8"/>
      </defs>
      <g>
       <use xlink:href="#m4dc366f9ca" x="57.6" y="295.488786" style="stroke: #000000; stroke-width: 0.8"/>
      </g>
     </g>
     <g id="text_8">
      <!-- 0.0 -->
      <g transform="translate(34.696875 299.288005) scale(0.1 -0.1)">
       <defs>
        <path id="DejaVuSans-2e" d="M 684 794 
L 1344 794 
L 1344 0 
L 684 0 
L 684 794 
z
" transform="scale(0.015625)"/>
       </defs>
       <use xlink:href="#DejaVuSans-30"/>
       <use xlink:href="#DejaVuSans-2e" x="63.623047"/>
       <use xlink:href="#DejaVuSans-30" x="95.410156"/>
      </g>
     </g>
    </g>
    <g id="ytick_2">
     <g id="line2d_8">
      <g>
       <use xlink:href="#m4dc366f9ca" x="57.6" y="260.966483" style="stroke: #000000; stroke-width: 0.8"/>
      </g>
     </g>
     <g id="text_9">
      <!-- 0.2 -->
      <g transform="translate(34.696875 264.765702) scale(0.1 -0.1)">
       <use xlink:href="#DejaVuSans-30"/>
       <use xlink:href="#DejaVuSans-2e" x="63.623047"/>
       <use xlink:href="#DejaVuSans-32" x="95.410156"/>
      </g>
     </g>
    </g>
    <g id="ytick_3">
     <g id="line2d_9">
      <g>
       <use xlink:href="#m4dc366f9ca" x="57.6" y="226.444181" style="stroke: #000000; stroke-width: 0.8"/>
      </g>
     </g>
     <g id="text_10">
      <!-- 0.4 -->
      <g transform="translate(34.696875 230.2434) scale(0.1 -0.1)">
       <defs>
        <path id="DejaVuSans-34" d="M 2419 4116 
L 825 1625 
L 2419 1625 
L 2419 4116 
z
M 2253 4666 
L 3047 4666 
L 3047 1625 
L 3713 1625 
L 3713 1100 
L 3047 1100 
L 3047 0 
L 2419 0 
L 2419 1100 
L 313 1100 
L 313 1709 
L 2253 4666 
z
" transform="scale(0.015625)"/>
       </defs>
       <use xlink:href="#DejaVuSans-30"/>
       <use xlink:href="#DejaVuSans-2e" x="63.623047"/>
       <use xlink:href="#DejaVuSans-34" x="95.410156"/>
      </g>
     </g>
    </g>
    <g id="ytick_4">
     <g id="line2d_10">
      <g>
       <use xlink:href="#m4dc366f9ca" x="57.6" y="191.921879" style="stroke: #000000; stroke-width: 0.8"/>
      </g>
     </g>
     <g id="text_11">
      <!-- 0.6 -->
      <g transform="translate(34.696875 195.721097) scale(0.1 -0.1)">
       <defs>
        <path id="DejaVuSans-36" d="M 2113 2584 
Q 1688 2584 1439 2293 
Q 1191 2003 1191 1497 
Q 1191 994 1439 701 
Q 1688 409 2113 409 
Q 2538 409 2786 701 
Q 3034 994 3034 1497 
Q 3034 2003 2786 2293 
Q 2538 2584 2113 2584 
z
M 3366 4563 
L 3366 3988 
Q 3128 4100 2886 4159 
Q 2644 4219 2406 4219 
Q 1781 4219 1451 3797 
Q 1122 3375 1075 2522 
Q 1259 2794 1537 2939 
Q 1816 3084 2150 3084 
Q 2853 3084 3261 2657 
Q 3669 2231 3669 1497 
Q 3669 778 3244 343 
Q 2819 -91 2113 -91 
Q 1303 -91 875 529 
Q 447 1150 447 2328 
Q 447 3434 972 4092 
Q 1497 4750 2381 4750 
Q 2619 4750 2861 4703 
Q 3103 4656 3366 4563 
z
" transform="scale(0.015625)"/>
       </defs>
       <use xlink:href="#DejaVuSans-30"/>
       <use xlink:href="#DejaVuSans-2e" x="63.623047"/>
       <use xlink:href="#DejaVuSans-36" x="95.410156"/>
      </g>
     </g>
    </g>
    <g id="ytick_5">
     <g id="line2d_11">
      <g>
       <use xlink:href="#m4dc366f9ca" x="57.6" y="157.399576" style="stroke: #000000; stroke-width: 0.8"/>
      </g>
     </g>
     <g id="text_12">
      <!-- 0.8 -->
      <g transform="translate(34.696875 161.198795) scale(0.1 -0.1)">
       <defs>
        <path id="DejaVuSans-38" d="M 2034 2216 
Q 1584 2216 1326 1975 
Q 1069 1734 1069 1313 
Q 1069 891 1326 650 
Q 1584 409 2034 409 
Q 2484 409 2743 651 
Q 3003 894 3003 1313 
Q 3003 1734 2745 1975 
Q 2488 2216 2034 2216 
z
M 1403 2484 
Q 997 2584 770 2862 
Q 544 3141 544 3541 
Q 544 4100 942 4425 
Q 1341 4750 2034 4750 
Q 2731 4750 3128 4425 
Q 3525 4100 3525 3541 
Q 3525 3141 3298 2862 
Q 3072 2584 2669 2484 
Q 3125 2378 3379 2068 
Q 3634 1759 3634 1313 
Q 3634 634 3220 271 
Q 2806 -91 2034 -91 
Q 1263 -91 848 271 
Q 434 634 434 1313 
Q 434 1759 690 2068 
Q 947 2378 1403 2484 
z
M 1172 3481 
Q 1172 3119 1398 2916 
Q 1625 2713 2034 2713 
Q 2441 2713 2670 2916 
Q 2900 3119 2900 3481 
Q 2900 3844 2670 4047 
Q 2441 4250 2034 4250 
Q 1625 4250 1398 4047 
Q 1172 3844 1172 3481 
z
" transform="scale(0.015625)"/>
       </defs>
       <use xlink:href="#DejaVuSans-30"/>
       <use xlink:href="#DejaVuSans-2e" x="63.623047"/>
       <use xlink:href="#DejaVuSans-38" x="95.410156"/>
      </g>
     </g>
    </g>
    <g id="ytick_6">
     <g id="line2d_12">
      <g>
       <use xlink:href="#m4dc366f9ca" x="57.6" y="122.877274" style="stroke: #000000; stroke-width: 0.8"/>
      </g>
     </g>
     <g id="text_13">
      <!-- 1.0 -->
      <g transform="translate(34.696875 126.676492) scale(0.1 -0.1)">
       <use xlink:href="#DejaVuSans-31"/>
       <use xlink:href="#DejaVuSans-2e" x="63.623047"/>
       <use xlink:href="#DejaVuSans-30" x="95.410156"/>
      </g>
     </g>
    </g>
    <g id="ytick_7">
     <g id="line2d_13">
      <g>
       <use xlink:href="#m4dc366f9ca" x="57.6" y="88.354971" style="stroke: #000000; stroke-width: 0.8"/>
      </g>
     </g>
     <g id="text_14">
      <!-- 1.2 -->
      <g transform="translate(34.696875 92.15419) scale(0.1 -0.1)">
       <use xlink:href="#DejaVuSans-31"/>
       <use xlink:href="#DejaVuSans-2e" x="63.623047"/>
       <use xlink:href="#DejaVuSans-32" x="95.410156"/>
      </g>
     </g>
    </g>
    <g id="ytick_8">
     <g id="line2d_14">
      <g>
       <use xlink:href="#m4dc366f9ca" x="57.6" y="53.832669" style="stroke: #000000; stroke-width: 0.8"/>
      </g>
     </g>
     <g id="text_15">
      <!-- 1.4 -->
      <g transform="translate(34.696875 57.631888) scale(0.1 -0.1)">
       <use xlink:href="#DejaVuSans-31"/>
       <use xlink:href="#DejaVuSans-2e" x="63.623047"/>
       <use xlink:href="#DejaVuSans-34" x="95.410156"/>
      </g>
     </g>
    </g>
    <g id="text_16">
     <!-- t (nsec) -->
     <g transform="translate(28.617187 193.578) rotate(-90) scale(0.1 -0.1)">
      <defs>
       <path id="DejaVuSans-74" d="M 1172 4494 
L 1172 3500 
L 2356 3500 
L 2356 3053 
L 1172 3053 
L 1172 1153 
Q 1172 725 1289 603 
Q 1406 481 1766 481 
L 2356 481 
L 2356 0 
L 1766 0 
Q 1100 0 847 248 
Q 594 497 594 1153 
L 594 3053 
L 172 3053 
L 172 3500 
L 594 3500 
L 594 4494 
L 1172 4494 
z
" transform="scale(0.015625)"/>
       <path id="DejaVuSans-20" transform="scale(0.015625)"/>
       <path id="DejaVuSans-28" d="M 1984 4856 
Q 1566 4138 1362 3434 
Q 1159 2731 1159 2009 
Q 1159 1288 1364 580 
Q 1569 -128 1984 -844 
L 1484 -844 
Q 1016 -109 783 600 
Q 550 1309 550 2009 
Q 550 2706 781 3412 
Q 1013 4119 1484 4856 
L 1984 4856 
z
" transform="scale(0.015625)"/>
       <path id="DejaVuSans-73" d="M 2834 3397 
L 2834 2853 
Q 2591 2978 2328 3040 
Q 2066 3103 1784 3103 
Q 1356 3103 1142 2972 
Q 928 2841 928 2578 
Q 928 2378 1081 2264 
Q 1234 2150 1697 2047 
L 1894 2003 
Q 2506 1872 2764 1633 
Q 3022 1394 3022 966 
Q 3022 478 2636 193 
Q 2250 -91 1575 -91 
Q 1294 -91 989 -36 
Q 684 19 347 128 
L 347 722 
Q 666 556 975 473 
Q 1284 391 1588 391 
Q 1994 391 2212 530 
Q 2431 669 2431 922 
Q 2431 1156 2273 1281 
Q 2116 1406 1581 1522 
L 1381 1569 
Q 847 1681 609 1914 
Q 372 2147 372 2553 
Q 372 3047 722 3315 
Q 1072 3584 1716 3584 
Q 2034 3584 2315 3537 
Q 2597 3491 2834 3397 
z
" transform="scale(0.015625)"/>
       <path id="DejaVuSans-65" d="M 3597 1894 
L 3597 1613 
L 953 1613 
Q 991 1019 1311 708 
Q 1631 397 2203 397 
Q 2534 397 2845 478 
Q 3156 559 3463 722 
L 3463 178 
Q 3153 47 2828 -22 
Q 2503 -91 2169 -91 
Q 1331 -91 842 396 
Q 353 884 353 1716 
Q 353 2575 817 3079 
Q 1281 3584 2069 3584 
Q 2775 3584 3186 3129 
Q 3597 2675 3597 1894 
z
M 3022 2063 
Q 3016 2534 2758 2815 
Q 2500 3097 2075 3097 
Q 1594 3097 1305 2825 
Q 1016 2553 972 2059 
L 3022 2063 
z
" transform="scale(0.015625)"/>
       <path id="DejaVuSans-63" d="M 3122 3366 
L 3122 2828 
Q 2878 2963 2633 3030 
Q 2388 3097 2138 3097 
Q 1578 3097 1268 2742 
Q 959 2388 959 1747 
Q 959 1106 1268 751 
Q 1578 397 2138 397 
Q 2388 397 2633 464 
Q 2878 531 3122 666 
L 3122 134 
Q 2881 22 2623 -34 
Q 2366 -91 2075 -91 
Q 1284 -91 818 406 
Q 353 903 353 1747 
Q 353 2603 823 3093 
Q 1294 3584 2113 3584 
Q 2378 3584 2631 3529 
Q 2884 3475 3122 3366 
z
" transform="scale(0.015625)"/>
       <path id="DejaVuSans-29" d="M 513 4856 
L 1013 4856 
Q 1481 4119 1714 3412 
Q 1947 2706 1947 2009 
Q 1947 1309 1714 600 
Q 1481 -109 1013 -844 
L 513 -844 
Q 928 -128 1133 580 
Q 1338 1288 1338 2009 
Q 1338 2731 1133 3434 
Q 928 4138 513 4856 
z
" transform="scale(0.015625)"/>
      </defs>
      <use xlink:href="#DejaVuSans-74"/>
      <use xlink:href="#DejaVuSans-20" x="39.208984"/>
      <use xlink:href="#DejaVuSans-28" x="70.996094"/>
      <use xlink:href="#DejaVuSans-6e" x="110.009766"/>
      <use xlink:href="#DejaVuSans-73" x="173.388672"/>
      <use xlink:href="#DejaVuSans-65" x="225.488281"/>
      <use xlink:href="#DejaVuSans-63" x="287.011719"/>
      <use xlink:href="#DejaVuSans-29" x="341.992188"/>
     </g>
    </g>
    <g id="text_17">
     <!-- 1e9 -->
     <g transform="translate(57.6 38.472) scale(0.1 -0.1)">
      <defs>
       <path id="DejaVuSans-39" d="M 703 97 
L 703 672 
Q 941 559 1184 500 
Q 1428 441 1663 441 
Q 2288 441 2617 861 
Q 2947 1281 2994 2138 
Q 2813 1869 2534 1725 
Q 2256 1581 1919 1581 
Q 1219 1581 811 2004 
Q 403 2428 403 3163 
Q 403 3881 828 4315 
Q 1253 4750 1959 4750 
Q 2769 4750 3195 4129 
Q 3622 3509 3622 2328 
Q 3622 1225 3098 567 
Q 2575 -91 1691 -91 
Q 1453 -91 1209 -44 
Q 966 3 703 97 
z
M 1959 2075 
Q 2384 2075 2632 2365 
Q 2881 2656 2881 3163 
Q 2881 3666 2632 3958 
Q 2384 4250 1959 4250 
Q 1534 4250 1286 3958 
Q 1038 3666 1038 3163 
Q 1038 2656 1286 2365 
Q 1534 2075 1959 2075 
z
" transform="scale(0.015625)"/>
      </defs>
      <use xlink:href="#DejaVuSans-31"/>
      <use xlink:href="#DejaVuSans-65" x="63.623047"/>
      <use xlink:href="#DejaVuSans-39" x="125.146484"/>
     </g>
    </g>
   </g>
   <g id="line2d_15">
    <path d="M 73.832727 295.488 
L 74.484644 292.306912 
L 76.114436 285.991796 
L 77.092311 282.92963 
L 79.699978 274.920561 
L 82.633604 266.550881 
L 83.28552 264.410918 
L 84.263395 261.800152 
L 84.589354 260.356924 
L 89.152771 248.026995 
L 89.478729 246.597398 
L 91.108521 242.369346 
L 91.43448 241.142068 
L 94.042147 234.719369 
L 94.694064 233.031675 
L 97.301731 226.887838 
L 97.627689 225.716133 
L 99.257481 222.121917 
L 100.561314 218.698198 
L 101.539189 216.948951 
L 103.168981 213.595252 
L 105.45069 209.075624 
L 106.102607 207.389959 
L 106.754524 206.244302 
L 109.362191 201.720267 
L 109.688149 201.141217 
L 110.340066 199.420956 
L 110.991982 198.18355 
L 112.947733 195.125183 
L 113.925608 193.45922 
L 116.859233 189.017389 
L 118.814984 186.34571 
L 120.118817 184.466458 
L 122.400526 180.919901 
L 127.941818 173.86423 
L 134.460986 166.04498 
L 135.112903 165.186674 
L 139.024403 160.281684 
L 144.891654 153.941083 
L 153.366572 145.869646 
L 158.907864 141.060062 
L 162.167448 138.362886 
L 163.145323 137.693787 
L 164.449157 136.794905 
L 165.427032 136.02865 
L 168.034699 134.087905 
L 174.879825 129.311572 
L 177.161533 127.700928 
L 180.747076 125.235673 
L 182.702826 124.024587 
L 184.006659 123.202033 
L 186.288368 121.701482 
L 187.91816 120.712544 
L 192.481577 118.106851 
L 193.133494 117.717753 
L 195.089244 116.69641 
L 199.326703 114.266114 
L 201.93437 112.95999 
L 202.586287 112.529764 
L 206.823746 110.451208 
L 210.409288 108.359864 
L 211.061205 107.941775 
L 212.690997 107.12631 
L 216.602497 105.542475 
L 217.906331 104.997795 
L 219.210164 104.363806 
L 220.513998 103.803928 
L 222.469748 103.000524 
L 223.447623 102.513418 
L 230.944666 99.484026 
L 233.552333 98.273268 
L 236.485958 96.788092 
L 242.027251 94.908134 
L 245.938751 93.66095 
L 248.546418 92.740778 
L 254.087711 90.852499 
L 255.065586 90.405771 
L 257.021336 89.472257 
L 257.673253 89.131211 
L 257.999211 89.035855 
L 258.651128 88.688007 
L 259.629003 88.28625 
L 262.888587 86.886147 
L 264.192421 86.373936 
L 265.822212 85.732822 
L 267.126046 85.170889 
L 270.711588 84.161789 
L 271.689463 83.800496 
L 281.468215 80.57202 
L 282.772048 80.203045 
L 283.749923 79.791537 
L 284.40184 79.558139 
L 285.379715 79.18203 
L 287.987382 78.338068 
L 292.224841 76.828106 
L 293.528675 76.327129 
L 297.440175 75.196713 
L 299.069967 74.761451 
L 302.655509 73.835338 
L 304.285301 73.37784 
L 307.870843 72.385023 
L 311.456386 71.577678 
L 314.064053 70.96128 
L 320.58322 69.564283 
L 333.621555 66.971917 
L 334.925389 66.611646 
L 338.184973 65.902135 
L 351.549266 63.383931 
L 356.112683 62.405475 
L 358.394392 61.808813 
L 361.002059 61.130511 
L 362.305893 60.831095 
L 365.239518 60.225426 
L 366.217393 59.999326 
L 368.499102 59.567169 
L 374.040394 58.378763 
L 375.344228 58.115516 
L 377.625936 57.595805 
L 380.88552 56.855607 
L 382.515312 56.443318 
L 385.774896 55.769941 
L 389.03448 55.137832 
L 390.338313 54.896776 
L 391.642147 54.645475 
L 396.531522 53.876479 
L 398.487273 53.568 
L 398.487273 53.568 
" clip-path="url(#p9433645a6f)" style="fill: none; stroke: #1f77b4; stroke-width: 1.5; stroke-linecap: square"/>
   </g>
   <g id="line2d_16">
    <path d="M 73.832727 295.487924 
L 74.810602 293.95997 
L 75.136561 293.167323 
L 76.766353 287.813353 
L 79.048061 281.293467 
L 79.37402 277.628991 
L 80.677853 275.775403 
L 82.307645 273.418096 
L 83.611479 270.266077 
L 83.937437 266.50452 
L 84.263395 265.712383 
L 86.871062 262.222785 
L 88.500854 258.508593 
L 88.826813 257.237515 
L 89.804688 255.586973 
L 90.130646 254.851706 
L 90.456605 251.006256 
L 90.782563 250.191441 
L 93.064272 247.289324 
L 93.716188 246.515615 
L 95.997897 241.983166 
L 97.301731 239.287658 
L 99.583439 234.816779 
L 102.843023 228.65445 
L 103.168981 225.927753 
L 106.428565 222.420139 
L 115.229441 207.78278 
L 115.881358 206.768108 
L 119.792859 200.951141 
L 120.444775 200.039522 
L 120.770734 197.84675 
L 124.356276 194.621428 
L 125.008193 193.505284 
L 126.963943 190.860492 
L 130.223527 186.791749 
L 133.483111 182.752122 
L 135.112903 180.846861 
L 135.438861 179.049193 
L 136.416736 178.301694 
L 136.742694 177.484235 
L 139.67632 175.205725 
L 140.328237 174.510347 
L 145.217612 168.973735 
L 147.825279 166.408287 
L 157.278072 157.020326 
L 157.604031 156.446875 
L 159.559781 154.547892 
L 160.537656 153.438768 
L 164.449157 150.147462 
L 167.70874 147.489338 
L 172.598116 143.748482 
L 173.575991 143.079154 
L 178.139409 139.766759 
L 178.791325 139.332025 
L 179.117284 138.279624 
L 183.680701 135.807292 
L 184.658576 135.098342 
L 188.570077 132.542987 
L 188.896035 131.668991 
L 192.807536 129.953543 
L 194.763286 129.087856 
L 198.02287 127.218833 
L 199.326703 126.516499 
L 201.93437 125.192148 
L 203.238204 124.51356 
L 209.431413 121.582733 
L 211.061205 120.770679 
L 212.365038 120.077629 
L 213.342913 119.609883 
L 218.232289 117.532627 
L 219.536123 116.893286 
L 226.707207 114.040382 
L 228.336999 113.44872 
L 230.618708 112.54698 
L 236.16 110.587412 
L 240.071501 109.436984 
L 247.894502 107.084647 
L 250.17621 106.43526 
L 253.761752 105.487301 
L 257.347295 104.55192 
L 257.673253 104.258853 
L 261.584754 103.335925 
L 265.170296 102.469478 
L 272.015422 100.942919 
L 276.252881 99.969438 
L 285.705674 97.970328 
L 290.269091 97.117408 
L 330.68793 89.895088 
L 333.621555 89.425392 
L 377.625936 83.211564 
L 388.382563 81.969529 
L 392.294064 81.497949 
L 398.487273 80.848228 
L 398.487273 80.848228 
" clip-path="url(#p9433645a6f)" style="fill: none; stroke: #ff7f0e; stroke-width: 1.5; stroke-linecap: square"/>
   </g>
   <g id="line2d_17">
    <path d="M 73.832727 295.487364 
L 77.418269 290.533761 
L 79.048061 288.527399 
L 79.37402 266.438159 
L 81.655728 263.579721 
L 83.611479 261.166298 
L 83.937437 259.737171 
L 84.915312 258.370284 
L 85.893187 257.088958 
L 87.848938 254.764651 
L 90.130646 252.109221 
L 90.456605 245.917516 
L 93.064272 242.711882 
L 98.931522 236.149409 
L 109.036232 225.690452 
L 110.991982 223.659058 
L 112.621774 222.031954 
L 114.903483 219.859865 
L 120.444775 214.810765 
L 120.770734 200.557729 
L 122.726484 198.668316 
L 125.986068 196.030648 
L 127.941818 194.432116 
L 130.549485 192.451288 
L 133.483111 190.162546 
L 135.112903 188.970233 
L 135.438861 184.772908 
L 136.416736 184.126693 
L 136.742694 183.453799 
L 145.217612 177.735387 
L 151.73678 173.838264 
L 162.819365 167.727761 
L 172.272158 162.927321 
L 176.183658 160.234913 
L 177.487492 159.427747 
L 178.791325 158.565075 
L 179.117284 150.677236 
L 180.747076 149.009992 
L 188.570077 145.623157 
L 188.896035 144.621852 
L 191.177744 143.642487 
L 207.475663 137.420519 
L 210.735246 136.248982 
L 220.839956 132.838494 
L 231.922541 129.565785 
L 235.508083 128.535093 
L 237.789792 127.898097 
L 243.331084 126.41517 
L 255.717503 123.413963 
L 257.347295 123.05161 
L 257.673253 122.335758 
L 276.252881 118.142648 
L 285.053757 116.382373 
L 288.639299 115.72844 
L 293.854633 114.790204 
L 304.285301 112.963879 
L 308.196802 112.327345 
L 322.53897 110.021486 
L 354.80885 105.569209 
L 387.078729 101.70295 
L 398.487273 101.207165 
L 398.487273 101.207165 
" clip-path="url(#p9433645a6f)" style="fill: none; stroke: #2ca02c; stroke-width: 1.5; stroke-linecap: square"/>
   </g>
   <g id="line2d_18">
    <path d="M 73.832727 295.487332 
L 75.462519 294.240927 
L 81.655728 290.335409 
L 88.826813 286.580464 
L 90.130646 285.978789 
L 90.456605 260.453938 
L 96.975772 257.522891 
L 105.45069 254.290378 
L 111.317941 252.291861 
L 118.163067 250.305373 
L 121.422651 249.445271 
L 133.809069 245.596216 
L 135.112903 245.251156 
L 135.438861 223.256094 
L 145.869529 220.312687 
L 152.062738 218.74411 
L 174.553866 213.109553 
L 198.02287 208.161741 
L 209.105455 206.177494 
L 251.154085 199.529839 
L 275.275005 196.18761 
L 290.595049 195.235461 
L 305.589135 194.373149 
L 322.864929 193.423919 
L 366.86931 191.286586 
L 398.487273 189.854263 
L 398.487273 189.854263 
" clip-path="url(#p9433645a6f)" style="fill: none; stroke: #d62728; stroke-width: 1.5; stroke-linecap: square"/>
   </g>
   <g id="line2d_19">
    <path d="M 73.832727 295.487191 
L 75.462519 294.874581 
L 78.722103 293.880081 
L 82.959562 292.809389 
L 88.826813 291.627978 
L 90.130646 291.402414 
L 90.456605 276.64861 
L 96.323855 275.730779 
L 102.517065 274.970211 
L 115.229441 273.877357 
L 120.444775 273.548611 
L 120.770734 268.500589 
L 135.112903 267.630752 
L 135.438861 243.314372 
L 145.217612 242.237267 
L 157.604031 240.99575 
L 168.034699 239.885465 
L 180.421117 238.780297 
L 193.133494 237.831587 
L 221.165915 236.132613 
L 230.944666 235.469015 
L 232.248499 235.030323 
L 234.530208 234.389627 
L 240.071501 232.663099 
L 243.331084 231.768274 
L 255.391544 228.6755 
L 256.695378 228.362188 
L 257.347295 228.213323 
L 257.673253 220.07286 
L 280.49034 218.505697 
L 298.092092 217.469783 
L 308.196802 216.928539 
L 339.814765 215.322996 
L 394.575772 212.936405 
L 398.487273 212.776308 
L 398.487273 212.776308 
" clip-path="url(#p9433645a6f)" style="fill: none; stroke: #9467bd; stroke-width: 1.5; stroke-linecap: square"/>
   </g>
   <g id="patch_3">
    <path d="M 57.6 307.584 
L 57.6 41.472 
" style="fill: none; stroke: #000000; stroke-width: 0.8; stroke-linejoin: miter; stroke-linecap: square"/>
   </g>
   <g id="patch_4">
    <path d="M 414.72 307.584 
L 414.72 41.472 
" style="fill: none; stroke: #000000; stroke-width: 0.8; stroke-linejoin: miter; stroke-linecap: square"/>
   </g>
   <g id="patch_5">
    <path d="M 57.6 307.584 
L 414.72 307.584 
" style="fill: none; stroke: #000000; stroke-width: 0.8; stroke-linejoin: miter; stroke-linecap: square"/>
   </g>
   <g id="patch_6">
    <path d="M 57.6 41.472 
L 414.72 41.472 
" style="fill: none; stroke: #000000; stroke-width: 0.8; stroke-linejoin: miter; stroke-linecap: square"/>
   </g>
   <g id="legend_1">
    <g id="patch_7">
     <path d="M 278.934063 302.584 
L 407.72 302.584 
Q 409.72 302.584 409.72 300.584 
L 409.72 226.80275 
Q 409.72 224.80275 407.72 224.80275 
L 278.934063 224.80275 
Q 276.934063 224.80275 276.934063 226.80275 
L 276.934063 300.584 
Q 276.934063 302.584 278.934063 302.584 
z
" style="fill: #ffffff; opacity: 0.8; stroke: #cccccc; stroke-linejoin: miter"/>
    </g>
    <g id="line2d_20">
     <path d="M 280.934063 232.901187 
L 290.934063 232.901187 
L 300.934063 232.901187 
" style="fill: none; stroke: #1f77b4; stroke-width: 1.5; stroke-linecap: square"/>
    </g>
    <g id="text_18">
     <!-- readahead_100 -->
     <g transform="translate(308.934063 236.401187) scale(0.1 -0.1)">
      <defs>
       <path id="DejaVuSans-72" d="M 2631 2963 
Q 2534 3019 2420 3045 
Q 2306 3072 2169 3072 
Q 1681 3072 1420 2755 
Q 1159 2438 1159 1844 
L 1159 0 
L 581 0 
L 581 3500 
L 1159 3500 
L 1159 2956 
Q 1341 3275 1631 3429 
Q 1922 3584 2338 3584 
Q 2397 3584 2469 3576 
Q 2541 3569 2628 3553 
L 2631 2963 
z
" transform="scale(0.015625)"/>
       <path id="DejaVuSans-61" d="M 2194 1759 
Q 1497 1759 1228 1600 
Q 959 1441 959 1056 
Q 959 750 1161 570 
Q 1363 391 1709 391 
Q 2188 391 2477 730 
Q 2766 1069 2766 1631 
L 2766 1759 
L 2194 1759 
z
M 3341 1997 
L 3341 0 
L 2766 0 
L 2766 531 
Q 2569 213 2275 61 
Q 1981 -91 1556 -91 
Q 1019 -91 701 211 
Q 384 513 384 1019 
Q 384 1609 779 1909 
Q 1175 2209 1959 2209 
L 2766 2209 
L 2766 2266 
Q 2766 2663 2505 2880 
Q 2244 3097 1772 3097 
Q 1472 3097 1187 3025 
Q 903 2953 641 2809 
L 641 3341 
Q 956 3463 1253 3523 
Q 1550 3584 1831 3584 
Q 2591 3584 2966 3190 
Q 3341 2797 3341 1997 
z
" transform="scale(0.015625)"/>
       <path id="DejaVuSans-64" d="M 2906 2969 
L 2906 4863 
L 3481 4863 
L 3481 0 
L 2906 0 
L 2906 525 
Q 2725 213 2448 61 
Q 2172 -91 1784 -91 
Q 1150 -91 751 415 
Q 353 922 353 1747 
Q 353 2572 751 3078 
Q 1150 3584 1784 3584 
Q 2172 3584 2448 3432 
Q 2725 3281 2906 2969 
z
M 947 1747 
Q 947 1113 1208 752 
Q 1469 391 1925 391 
Q 2381 391 2643 752 
Q 2906 1113 2906 1747 
Q 2906 2381 2643 2742 
Q 2381 3103 1925 3103 
Q 1469 3103 1208 2742 
Q 947 2381 947 1747 
z
" transform="scale(0.015625)"/>
       <path id="DejaVuSans-68" d="M 3513 2113 
L 3513 0 
L 2938 0 
L 2938 2094 
Q 2938 2591 2744 2837 
Q 2550 3084 2163 3084 
Q 1697 3084 1428 2787 
Q 1159 2491 1159 1978 
L 1159 0 
L 581 0 
L 581 4863 
L 1159 4863 
L 1159 2956 
Q 1366 3272 1645 3428 
Q 1925 3584 2291 3584 
Q 2894 3584 3203 3211 
Q 3513 2838 3513 2113 
z
" transform="scale(0.015625)"/>
       <path id="DejaVuSans-5f" d="M 3263 -1063 
L 3263 -1509 
L -63 -1509 
L -63 -1063 
L 3263 -1063 
z
" transform="scale(0.015625)"/>
      </defs>
      <use xlink:href="#DejaVuSans-72"/>
      <use xlink:href="#DejaVuSans-65" x="38.863281"/>
      <use xlink:href="#DejaVuSans-61" x="100.386719"/>
      <use xlink:href="#DejaVuSans-64" x="161.666016"/>
      <use xlink:href="#DejaVuSans-61" x="225.142578"/>
      <use xlink:href="#DejaVuSans-68" x="286.421875"/>
      <use xlink:href="#DejaVuSans-65" x="349.800781"/>
      <use xlink:href="#DejaVuSans-61" x="411.324219"/>
      <use xlink:href="#DejaVuSans-64" x="472.603516"/>
      <use xlink:href="#DejaVuSans-5f" x="536.080078"/>
      <use xlink:href="#DejaVuSans-31" x="586.080078"/>
      <use xlink:href="#DejaVuSans-30" x="649.703125"/>
      <use xlink:href="#DejaVuSans-30" x="713.326172"/>
     </g>
    </g>
    <g id="line2d_21">
     <path d="M 280.934063 247.857437 
L 290.934063 247.857437 
L 300.934063 247.857437 
" style="fill: none; stroke: #ff7f0e; stroke-width: 1.5; stroke-linecap: square"/>
    </g>
    <g id="text_19">
     <!-- readahead_1000 -->
     <g transform="translate(308.934063 251.357437) scale(0.1 -0.1)">
      <use xlink:href="#DejaVuSans-72"/>
      <use xlink:href="#DejaVuSans-65" x="38.863281"/>
      <use xlink:href="#DejaVuSans-61" x="100.386719"/>
      <use xlink:href="#DejaVuSans-64" x="161.666016"/>
      <use xlink:href="#DejaVuSans-61" x="225.142578"/>
      <use xlink:href="#DejaVuSans-68" x="286.421875"/>
      <use xlink:href="#DejaVuSans-65" x="349.800781"/>
      <use xlink:href="#DejaVuSans-61" x="411.324219"/>
      <use xlink:href="#DejaVuSans-64" x="472.603516"/>
      <use xlink:href="#DejaVuSans-5f" x="536.080078"/>
      <use xlink:href="#DejaVuSans-31" x="586.080078"/>
      <use xlink:href="#DejaVuSans-30" x="649.703125"/>
      <use xlink:href="#DejaVuSans-30" x="713.326172"/>
      <use xlink:href="#DejaVuSans-30" x="776.949219"/>
     </g>
    </g>
    <g id="line2d_22">
     <path d="M 280.934063 262.813688 
L 290.934063 262.813688 
L 300.934063 262.813688 
" style="fill: none; stroke: #2ca02c; stroke-width: 1.5; stroke-linecap: square"/>
    </g>
    <g id="text_20">
     <!-- readahead_10000 -->
     <g transform="translate(308.934063 266.313688) scale(0.1 -0.1)">
      <use xlink:href="#DejaVuSans-72"/>
      <use xlink:href="#DejaVuSans-65" x="38.863281"/>
      <use xlink:href="#DejaVuSans-61" x="100.386719"/>
      <use xlink:href="#DejaVuSans-64" x="161.666016"/>
      <use xlink:href="#DejaVuSans-61" x="225.142578"/>
      <use xlink:href="#DejaVuSans-68" x="286.421875"/>
      <use xlink:href="#DejaVuSans-65" x="349.800781"/>
      <use xlink:href="#DejaVuSans-61" x="411.324219"/>
      <use xlink:href="#DejaVuSans-64" x="472.603516"/>
      <use xlink:href="#DejaVuSans-5f" x="536.080078"/>
      <use xlink:href="#DejaVuSans-31" x="586.080078"/>
      <use xlink:href="#DejaVuSans-30" x="649.703125"/>
      <use xlink:href="#DejaVuSans-30" x="713.326172"/>
      <use xlink:href="#DejaVuSans-30" x="776.949219"/>
      <use xlink:href="#DejaVuSans-30" x="840.572266"/>
     </g>
    </g>
    <g id="line2d_23">
     <path d="M 280.934063 277.769937 
L 290.934063 277.769937 
L 300.934063 277.769937 
" style="fill: none; stroke: #d62728; stroke-width: 1.5; stroke-linecap: square"/>
    </g>
    <g id="text_21">
     <!-- readahead_100000 -->
     <g transform="translate(308.934063 281.269937) scale(0.1 -0.1)">
      <use xlink:href="#DejaVuSans-72"/>
      <use xlink:href="#DejaVuSans-65" x="38.863281"/>
      <use xlink:href="#DejaVuSans-61" x="100.386719"/>
      <use xlink:href="#DejaVuSans-64" x="161.666016"/>
      <use xlink:href="#DejaVuSans-61" x="225.142578"/>
      <use xlink:href="#DejaVuSans-68" x="286.421875"/>
      <use xlink:href="#DejaVuSans-65" x="349.800781"/>
      <use xlink:href="#DejaVuSans-61" x="411.324219"/>
      <use xlink:href="#DejaVuSans-64" x="472.603516"/>
      <use xlink:href="#DejaVuSans-5f" x="536.080078"/>
      <use xlink:href="#DejaVuSans-31" x="586.080078"/>
      <use xlink:href="#DejaVuSans-30" x="649.703125"/>
      <use xlink:href="#DejaVuSans-30" x="713.326172"/>
      <use xlink:href="#DejaVuSans-30" x="776.949219"/>
      <use xlink:href="#DejaVuSans-30" x="840.572266"/>
      <use xlink:href="#DejaVuSans-30" x="904.195312"/>
     </g>
    </g>
    <g id="line2d_24">
     <path d="M 280.934063 292.726187 
L 290.934063 292.726187 
L 300.934063 292.726187 
" style="fill: none; stroke: #9467bd; stroke-width: 1.5; stroke-linecap: square"/>
    </g>
    <g id="text_22">
     <!-- readahead_262144 -->
     <g transform="translate(308.934063 296.226187) scale(0.1 -0.1)">
      <use xlink:href="#DejaVuSans-72"/>
      <use xlink:href="#DejaVuSans-65" x="38.863281"/>
      <use xlink:href="#DejaVuSans-61" x="100.386719"/>
      <use xlink:href="#DejaVuSans-64" x="161.666016"/>
      <use xlink:href="#DejaVuSans-61" x="225.142578"/>
      <use xlink:href="#DejaVuSans-68" x="286.421875"/>
      <use xlink:href="#DejaVuSans-65" x="349.800781"/>
      <use xlink:href="#DejaVuSans-61" x="411.324219"/>
      <use xlink:href="#DejaVuSans-64" x="472.603516"/>
      <use xlink:href="#DejaVuSans-5f" x="536.080078"/>
      <use xlink:href="#DejaVuSans-32" x="586.080078"/>
      <use xlink:href="#DejaVuSans-36" x="649.703125"/>
      <use xlink:href="#DejaVuSans-32" x="713.326172"/>
      <use xlink:href="#DejaVuSans-31" x="776.949219"/>
      <use xlink:href="#DejaVuSans-34" x="840.572266"/>
      <use xlink:href="#DejaVuSans-34" x="904.195312"/>
     </g>
    </g>
   </g>
  </g>
 </g>
 <defs>
  <clipPath id="p9433645a6f">
   <rect x="57.6" y="41.472" width="357.12" height="266.112"/>
  </clipPath>
 </defs>
</svg>
